<mxfile host="app.diagrams.net" modified="2023-12-28T15:24:37.438Z" agent="Mozilla/5.0 (Windows NT 10.0; Win64; x64) AppleWebKit/537.36 (KHTML, like Gecko) Chrome/119.0.0.0 Safari/537.36 OPR/105.0.0.0" etag="PPwmz07uetFBK2WxYSvh" version="22.1.15" type="device">
  <diagram name="Сторінка-1" id="LslY9Z2188zxGi_9hTa-">
    <mxGraphModel dx="961" dy="535" grid="0" gridSize="10" guides="1" tooltips="1" connect="1" arrows="1" fold="1" page="1" pageScale="1" pageWidth="1169" pageHeight="1654" math="0" shadow="0">
      <root>
        <mxCell id="0" />
        <mxCell id="1" parent="0" />
        <mxCell id="PpbCeMZjg4ImSOHFw9DG-14" style="rounded=0;orthogonalLoop=1;jettySize=auto;html=1;exitX=0.644;exitY=0.033;exitDx=0;exitDy=0;entryX=0;entryY=0.25;entryDx=0;entryDy=0;exitPerimeter=0;" edge="1" parent="1" source="PpbCeMZjg4ImSOHFw9DG-1" target="PpbCeMZjg4ImSOHFw9DG-4">
          <mxGeometry relative="1" as="geometry" />
        </mxCell>
        <mxCell id="PpbCeMZjg4ImSOHFw9DG-19" style="rounded=0;orthogonalLoop=1;jettySize=auto;html=1;exitX=0.75;exitY=1;exitDx=0;exitDy=0;entryX=0;entryY=0.25;entryDx=0;entryDy=0;" edge="1" parent="1" source="PpbCeMZjg4ImSOHFw9DG-1" target="PpbCeMZjg4ImSOHFw9DG-9">
          <mxGeometry relative="1" as="geometry" />
        </mxCell>
        <mxCell id="PpbCeMZjg4ImSOHFw9DG-22" style="rounded=0;orthogonalLoop=1;jettySize=auto;html=1;exitX=1;exitY=0.75;exitDx=0;exitDy=0;entryX=0;entryY=0.5;entryDx=0;entryDy=0;" edge="1" parent="1" source="PpbCeMZjg4ImSOHFw9DG-1" target="PpbCeMZjg4ImSOHFw9DG-7">
          <mxGeometry relative="1" as="geometry" />
        </mxCell>
        <mxCell id="PpbCeMZjg4ImSOHFw9DG-1" value="Web App" style="rounded=0;whiteSpace=wrap;html=1;" vertex="1" parent="1">
          <mxGeometry x="85" y="163" width="120" height="60" as="geometry" />
        </mxCell>
        <mxCell id="PpbCeMZjg4ImSOHFw9DG-2" value="&lt;font style=&quot;font-size: 20px;&quot;&gt;Логічна схема&lt;/font&gt;" style="text;html=1;align=center;verticalAlign=middle;resizable=0;points=[];autosize=1;strokeColor=none;fillColor=none;" vertex="1" parent="1">
          <mxGeometry x="71" y="26" width="148" height="36" as="geometry" />
        </mxCell>
        <mxCell id="PpbCeMZjg4ImSOHFw9DG-3" value="" style="shape=image;html=1;verticalAlign=top;verticalLabelPosition=bottom;labelBackgroundColor=#ffffff;imageAspect=0;aspect=fixed;image=https://cdn2.iconfinder.com/data/icons/whcompare-isometric-web-hosting-servers/50/database-128.png" vertex="1" parent="1">
          <mxGeometry x="666" y="70.5" width="69" height="69" as="geometry" />
        </mxCell>
        <mxCell id="PpbCeMZjg4ImSOHFw9DG-4" value="Support" style="rounded=0;whiteSpace=wrap;html=1;" vertex="1" parent="1">
          <mxGeometry x="268" y="26" width="120" height="60" as="geometry" />
        </mxCell>
        <mxCell id="PpbCeMZjg4ImSOHFw9DG-29" style="rounded=0;orthogonalLoop=1;jettySize=auto;html=1;exitX=1;exitY=0.5;exitDx=0;exitDy=0;" edge="1" parent="1" source="PpbCeMZjg4ImSOHFw9DG-5" target="PpbCeMZjg4ImSOHFw9DG-3">
          <mxGeometry relative="1" as="geometry" />
        </mxCell>
        <mxCell id="PpbCeMZjg4ImSOHFw9DG-5" value="Product display" style="rounded=0;whiteSpace=wrap;html=1;" vertex="1" parent="1">
          <mxGeometry x="431" y="75" width="120" height="60" as="geometry" />
        </mxCell>
        <mxCell id="PpbCeMZjg4ImSOHFw9DG-30" style="rounded=0;orthogonalLoop=1;jettySize=auto;html=1;exitX=1;exitY=0.5;exitDx=0;exitDy=0;" edge="1" parent="1" source="PpbCeMZjg4ImSOHFw9DG-6" target="PpbCeMZjg4ImSOHFw9DG-11">
          <mxGeometry relative="1" as="geometry" />
        </mxCell>
        <mxCell id="PpbCeMZjg4ImSOHFw9DG-6" value="Ordering" style="rounded=0;whiteSpace=wrap;html=1;" vertex="1" parent="1">
          <mxGeometry x="431" y="163" width="120" height="60" as="geometry" />
        </mxCell>
        <mxCell id="PpbCeMZjg4ImSOHFw9DG-31" style="rounded=0;orthogonalLoop=1;jettySize=auto;html=1;exitX=1;exitY=0.5;exitDx=0;exitDy=0;" edge="1" parent="1" source="PpbCeMZjg4ImSOHFw9DG-7" target="PpbCeMZjg4ImSOHFw9DG-10">
          <mxGeometry relative="1" as="geometry" />
        </mxCell>
        <mxCell id="PpbCeMZjg4ImSOHFw9DG-7" value="Profile editing" style="rounded=0;whiteSpace=wrap;html=1;" vertex="1" parent="1">
          <mxGeometry x="431" y="266" width="120" height="60" as="geometry" />
        </mxCell>
        <mxCell id="PpbCeMZjg4ImSOHFw9DG-18" style="rounded=0;orthogonalLoop=1;jettySize=auto;html=1;exitX=0;exitY=0.5;exitDx=0;exitDy=0;entryX=0.639;entryY=1.022;entryDx=0;entryDy=0;entryPerimeter=0;" edge="1" parent="1" source="PpbCeMZjg4ImSOHFw9DG-9" target="PpbCeMZjg4ImSOHFw9DG-1">
          <mxGeometry relative="1" as="geometry" />
        </mxCell>
        <mxCell id="PpbCeMZjg4ImSOHFw9DG-9" value="Authorization" style="rounded=0;whiteSpace=wrap;html=1;" vertex="1" parent="1">
          <mxGeometry x="268" y="326" width="120" height="60" as="geometry" />
        </mxCell>
        <mxCell id="PpbCeMZjg4ImSOHFw9DG-10" value="" style="shape=image;html=1;verticalAlign=top;verticalLabelPosition=bottom;labelBackgroundColor=#ffffff;imageAspect=0;aspect=fixed;image=https://cdn2.iconfinder.com/data/icons/whcompare-isometric-web-hosting-servers/50/database-128.png" vertex="1" parent="1">
          <mxGeometry x="666" y="261.5" width="69" height="69" as="geometry" />
        </mxCell>
        <mxCell id="PpbCeMZjg4ImSOHFw9DG-11" value="" style="shape=image;html=1;verticalAlign=top;verticalLabelPosition=bottom;labelBackgroundColor=#ffffff;imageAspect=0;aspect=fixed;image=https://cdn2.iconfinder.com/data/icons/whcompare-isometric-web-hosting-servers/50/database-128.png" vertex="1" parent="1">
          <mxGeometry x="666" y="158.5" width="69" height="69" as="geometry" />
        </mxCell>
        <mxCell id="PpbCeMZjg4ImSOHFw9DG-20" style="rounded=0;orthogonalLoop=1;jettySize=auto;html=1;exitX=0;exitY=0.75;exitDx=0;exitDy=0;entryX=1.006;entryY=0.911;entryDx=0;entryDy=0;entryPerimeter=0;" edge="1" parent="1" source="PpbCeMZjg4ImSOHFw9DG-7" target="PpbCeMZjg4ImSOHFw9DG-1">
          <mxGeometry relative="1" as="geometry" />
        </mxCell>
        <mxCell id="PpbCeMZjg4ImSOHFw9DG-23" style="rounded=0;orthogonalLoop=1;jettySize=auto;html=1;exitX=0;exitY=0.5;exitDx=0;exitDy=0;entryX=1.011;entryY=0.656;entryDx=0;entryDy=0;entryPerimeter=0;" edge="1" parent="1" source="PpbCeMZjg4ImSOHFw9DG-6" target="PpbCeMZjg4ImSOHFw9DG-1">
          <mxGeometry relative="1" as="geometry" />
        </mxCell>
        <mxCell id="PpbCeMZjg4ImSOHFw9DG-24" style="rounded=0;orthogonalLoop=1;jettySize=auto;html=1;exitX=1;exitY=0.5;exitDx=0;exitDy=0;entryX=0.019;entryY=0.328;entryDx=0;entryDy=0;entryPerimeter=0;" edge="1" parent="1" source="PpbCeMZjg4ImSOHFw9DG-1" target="PpbCeMZjg4ImSOHFw9DG-6">
          <mxGeometry relative="1" as="geometry" />
        </mxCell>
        <mxCell id="PpbCeMZjg4ImSOHFw9DG-25" style="rounded=0;orthogonalLoop=1;jettySize=auto;html=1;exitX=0;exitY=0.75;exitDx=0;exitDy=0;entryX=0.994;entryY=0.333;entryDx=0;entryDy=0;entryPerimeter=0;" edge="1" parent="1" source="PpbCeMZjg4ImSOHFw9DG-5" target="PpbCeMZjg4ImSOHFw9DG-1">
          <mxGeometry relative="1" as="geometry" />
        </mxCell>
        <mxCell id="PpbCeMZjg4ImSOHFw9DG-28" style="rounded=0;orthogonalLoop=1;jettySize=auto;html=1;exitX=1.011;exitY=0.156;exitDx=0;exitDy=0;exitPerimeter=0;entryX=-0.003;entryY=0.589;entryDx=0;entryDy=0;entryPerimeter=0;" edge="1" parent="1" source="PpbCeMZjg4ImSOHFw9DG-1" target="PpbCeMZjg4ImSOHFw9DG-5">
          <mxGeometry relative="1" as="geometry">
            <mxPoint x="393" y="117" as="targetPoint" />
          </mxGeometry>
        </mxCell>
        <mxCell id="PpbCeMZjg4ImSOHFw9DG-32" style="rounded=0;orthogonalLoop=1;jettySize=auto;html=1;exitX=0.644;exitY=0.033;exitDx=0;exitDy=0;entryX=0;entryY=0.25;entryDx=0;entryDy=0;exitPerimeter=0;" edge="1" parent="1" source="PpbCeMZjg4ImSOHFw9DG-35" target="PpbCeMZjg4ImSOHFw9DG-39">
          <mxGeometry relative="1" as="geometry" />
        </mxCell>
        <mxCell id="PpbCeMZjg4ImSOHFw9DG-33" style="rounded=0;orthogonalLoop=1;jettySize=auto;html=1;exitX=0.75;exitY=1;exitDx=0;exitDy=0;entryX=0;entryY=0.25;entryDx=0;entryDy=0;" edge="1" parent="1" source="PpbCeMZjg4ImSOHFw9DG-35" target="PpbCeMZjg4ImSOHFw9DG-47">
          <mxGeometry relative="1" as="geometry" />
        </mxCell>
        <mxCell id="PpbCeMZjg4ImSOHFw9DG-34" style="rounded=0;orthogonalLoop=1;jettySize=auto;html=1;exitX=1;exitY=0.75;exitDx=0;exitDy=0;entryX=0;entryY=0.5;entryDx=0;entryDy=0;" edge="1" parent="1" source="PpbCeMZjg4ImSOHFw9DG-35" target="PpbCeMZjg4ImSOHFw9DG-45">
          <mxGeometry relative="1" as="geometry" />
        </mxCell>
        <mxCell id="PpbCeMZjg4ImSOHFw9DG-35" value="Web App&lt;br&gt;&lt;br&gt;JavaScript (React)" style="rounded=0;whiteSpace=wrap;html=1;verticalAlign=top;" vertex="1" parent="1">
          <mxGeometry x="99" y="633" width="120" height="60" as="geometry" />
        </mxCell>
        <mxCell id="PpbCeMZjg4ImSOHFw9DG-36" value="&lt;font style=&quot;font-size: 20px;&quot;&gt;Технічна схема&lt;br&gt;&lt;/font&gt;" style="text;html=1;align=center;verticalAlign=middle;resizable=0;points=[];autosize=1;strokeColor=none;fillColor=none;" vertex="1" parent="1">
          <mxGeometry x="99" y="494" width="159" height="36" as="geometry" />
        </mxCell>
        <mxCell id="PpbCeMZjg4ImSOHFw9DG-37" value="MockAPI (PostgreSQL)" style="shape=image;html=1;verticalAlign=top;verticalLabelPosition=bottom;labelBackgroundColor=#ffffff;imageAspect=0;aspect=fixed;image=https://cdn2.iconfinder.com/data/icons/whcompare-isometric-web-hosting-servers/50/database-128.png" vertex="1" parent="1">
          <mxGeometry x="680" y="533" width="69" height="69" as="geometry" />
        </mxCell>
        <mxCell id="PpbCeMZjg4ImSOHFw9DG-39" value="Support&lt;br&gt;&lt;br&gt;Python (telebot)" style="rounded=0;whiteSpace=wrap;html=1;verticalAlign=top;" vertex="1" parent="1">
          <mxGeometry x="282" y="496" width="120" height="60" as="geometry" />
        </mxCell>
        <mxCell id="PpbCeMZjg4ImSOHFw9DG-40" style="rounded=0;orthogonalLoop=1;jettySize=auto;html=1;exitX=1;exitY=0.5;exitDx=0;exitDy=0;" edge="1" parent="1" source="PpbCeMZjg4ImSOHFw9DG-41" target="PpbCeMZjg4ImSOHFw9DG-37">
          <mxGeometry relative="1" as="geometry" />
        </mxCell>
        <mxCell id="PpbCeMZjg4ImSOHFw9DG-41" value="Product display&lt;br&gt;&lt;br&gt;JavaScript (React)" style="rounded=0;whiteSpace=wrap;html=1;verticalAlign=top;" vertex="1" parent="1">
          <mxGeometry x="445" y="537.5" width="120" height="60" as="geometry" />
        </mxCell>
        <mxCell id="PpbCeMZjg4ImSOHFw9DG-42" style="rounded=0;orthogonalLoop=1;jettySize=auto;html=1;exitX=1;exitY=0.5;exitDx=0;exitDy=0;" edge="1" parent="1" source="PpbCeMZjg4ImSOHFw9DG-43">
          <mxGeometry relative="1" as="geometry">
            <mxPoint x="680" y="671.0000000000002" as="targetPoint" />
          </mxGeometry>
        </mxCell>
        <mxCell id="PpbCeMZjg4ImSOHFw9DG-43" value="Ordering&lt;br&gt;&lt;br&gt;JavaScript (React)" style="rounded=0;whiteSpace=wrap;html=1;verticalAlign=top;" vertex="1" parent="1">
          <mxGeometry x="445" y="641" width="120" height="60" as="geometry" />
        </mxCell>
        <mxCell id="PpbCeMZjg4ImSOHFw9DG-44" style="rounded=0;orthogonalLoop=1;jettySize=auto;html=1;exitX=1;exitY=0.5;exitDx=0;exitDy=0;" edge="1" parent="1" source="PpbCeMZjg4ImSOHFw9DG-45" target="PpbCeMZjg4ImSOHFw9DG-48">
          <mxGeometry relative="1" as="geometry" />
        </mxCell>
        <mxCell id="PpbCeMZjg4ImSOHFw9DG-45" value="Profile editing&lt;br&gt;&lt;br&gt;JavaScript (React)" style="rounded=0;whiteSpace=wrap;html=1;verticalAlign=top;" vertex="1" parent="1">
          <mxGeometry x="445" y="736" width="120" height="60" as="geometry" />
        </mxCell>
        <mxCell id="PpbCeMZjg4ImSOHFw9DG-46" style="rounded=0;orthogonalLoop=1;jettySize=auto;html=1;exitX=0;exitY=0.5;exitDx=0;exitDy=0;entryX=0.639;entryY=1.022;entryDx=0;entryDy=0;entryPerimeter=0;" edge="1" parent="1" source="PpbCeMZjg4ImSOHFw9DG-47" target="PpbCeMZjg4ImSOHFw9DG-35">
          <mxGeometry relative="1" as="geometry" />
        </mxCell>
        <mxCell id="PpbCeMZjg4ImSOHFw9DG-47" value="Authorization&lt;br&gt;&lt;br&gt;JavaScript (React)" style="rounded=0;whiteSpace=wrap;html=1;verticalAlign=top;" vertex="1" parent="1">
          <mxGeometry x="282" y="796" width="120" height="60" as="geometry" />
        </mxCell>
        <mxCell id="PpbCeMZjg4ImSOHFw9DG-48" value="Supabase (PotgreSQL)" style="shape=image;html=1;verticalAlign=top;verticalLabelPosition=bottom;labelBackgroundColor=#ffffff;imageAspect=0;aspect=fixed;image=https://cdn2.iconfinder.com/data/icons/whcompare-isometric-web-hosting-servers/50/database-128.png" vertex="1" parent="1">
          <mxGeometry x="680" y="731.5" width="69" height="69" as="geometry" />
        </mxCell>
        <mxCell id="PpbCeMZjg4ImSOHFw9DG-49" value="Local storage (browser cache)" style="shape=image;html=1;verticalAlign=top;verticalLabelPosition=bottom;labelBackgroundColor=#ffffff;imageAspect=0;aspect=fixed;image=https://cdn2.iconfinder.com/data/icons/whcompare-isometric-web-hosting-servers/50/database-128.png" vertex="1" parent="1">
          <mxGeometry x="680" y="628.5" width="69" height="69" as="geometry" />
        </mxCell>
        <mxCell id="PpbCeMZjg4ImSOHFw9DG-50" style="rounded=0;orthogonalLoop=1;jettySize=auto;html=1;exitX=0;exitY=0.75;exitDx=0;exitDy=0;entryX=1.006;entryY=0.911;entryDx=0;entryDy=0;entryPerimeter=0;" edge="1" parent="1" source="PpbCeMZjg4ImSOHFw9DG-45" target="PpbCeMZjg4ImSOHFw9DG-35">
          <mxGeometry relative="1" as="geometry" />
        </mxCell>
        <mxCell id="PpbCeMZjg4ImSOHFw9DG-51" style="rounded=0;orthogonalLoop=1;jettySize=auto;html=1;exitX=0;exitY=0.5;exitDx=0;exitDy=0;entryX=1.011;entryY=0.656;entryDx=0;entryDy=0;entryPerimeter=0;" edge="1" parent="1" source="PpbCeMZjg4ImSOHFw9DG-43" target="PpbCeMZjg4ImSOHFw9DG-35">
          <mxGeometry relative="1" as="geometry" />
        </mxCell>
        <mxCell id="PpbCeMZjg4ImSOHFw9DG-52" style="rounded=0;orthogonalLoop=1;jettySize=auto;html=1;exitX=1;exitY=0.5;exitDx=0;exitDy=0;entryX=0.019;entryY=0.328;entryDx=0;entryDy=0;entryPerimeter=0;" edge="1" parent="1" source="PpbCeMZjg4ImSOHFw9DG-35" target="PpbCeMZjg4ImSOHFw9DG-43">
          <mxGeometry relative="1" as="geometry" />
        </mxCell>
        <mxCell id="PpbCeMZjg4ImSOHFw9DG-53" style="rounded=0;orthogonalLoop=1;jettySize=auto;html=1;exitX=0;exitY=0.75;exitDx=0;exitDy=0;entryX=0.994;entryY=0.333;entryDx=0;entryDy=0;entryPerimeter=0;" edge="1" parent="1" source="PpbCeMZjg4ImSOHFw9DG-41" target="PpbCeMZjg4ImSOHFw9DG-35">
          <mxGeometry relative="1" as="geometry" />
        </mxCell>
        <mxCell id="PpbCeMZjg4ImSOHFw9DG-54" style="rounded=0;orthogonalLoop=1;jettySize=auto;html=1;exitX=1.011;exitY=0.156;exitDx=0;exitDy=0;exitPerimeter=0;entryX=-0.003;entryY=0.589;entryDx=0;entryDy=0;entryPerimeter=0;" edge="1" parent="1" source="PpbCeMZjg4ImSOHFw9DG-35" target="PpbCeMZjg4ImSOHFw9DG-41">
          <mxGeometry relative="1" as="geometry">
            <mxPoint x="407" y="587" as="targetPoint" />
          </mxGeometry>
        </mxCell>
        <mxCell id="PpbCeMZjg4ImSOHFw9DG-57" style="rounded=0;orthogonalLoop=1;jettySize=auto;html=1;exitX=0;exitY=0.5;exitDx=0;exitDy=0;entryX=1;entryY=0.5;entryDx=0;entryDy=0;shape=link;" edge="1" parent="1" source="PpbCeMZjg4ImSOHFw9DG-35" target="PpbCeMZjg4ImSOHFw9DG-35">
          <mxGeometry relative="1" as="geometry" />
        </mxCell>
        <mxCell id="PpbCeMZjg4ImSOHFw9DG-58" style="rounded=0;orthogonalLoop=1;jettySize=auto;html=1;exitX=0;exitY=0.5;exitDx=0;exitDy=0;entryX=1;entryY=0.5;entryDx=0;entryDy=0;shape=link;strokeWidth=1;" edge="1" parent="1" source="PpbCeMZjg4ImSOHFw9DG-39" target="PpbCeMZjg4ImSOHFw9DG-39">
          <mxGeometry relative="1" as="geometry" />
        </mxCell>
        <mxCell id="PpbCeMZjg4ImSOHFw9DG-59" style="rounded=0;orthogonalLoop=1;jettySize=auto;html=1;exitX=0;exitY=0.5;exitDx=0;exitDy=0;entryX=1;entryY=0.5;entryDx=0;entryDy=0;shape=link;" edge="1" parent="1" source="PpbCeMZjg4ImSOHFw9DG-41" target="PpbCeMZjg4ImSOHFw9DG-41">
          <mxGeometry relative="1" as="geometry" />
        </mxCell>
        <mxCell id="PpbCeMZjg4ImSOHFw9DG-60" style="rounded=0;orthogonalLoop=1;jettySize=auto;html=1;exitX=0;exitY=0.5;exitDx=0;exitDy=0;entryX=1;entryY=0.5;entryDx=0;entryDy=0;shape=link;" edge="1" parent="1" source="PpbCeMZjg4ImSOHFw9DG-43" target="PpbCeMZjg4ImSOHFw9DG-43">
          <mxGeometry relative="1" as="geometry" />
        </mxCell>
        <mxCell id="PpbCeMZjg4ImSOHFw9DG-61" style="rounded=0;orthogonalLoop=1;jettySize=auto;html=1;exitX=0;exitY=0.5;exitDx=0;exitDy=0;entryX=1;entryY=0.5;entryDx=0;entryDy=0;shape=link;" edge="1" parent="1" source="PpbCeMZjg4ImSOHFw9DG-45" target="PpbCeMZjg4ImSOHFw9DG-45">
          <mxGeometry relative="1" as="geometry" />
        </mxCell>
        <mxCell id="PpbCeMZjg4ImSOHFw9DG-62" style="rounded=0;orthogonalLoop=1;jettySize=auto;html=1;exitX=0;exitY=0.5;exitDx=0;exitDy=0;entryX=1;entryY=0.5;entryDx=0;entryDy=0;shape=link;" edge="1" parent="1" source="PpbCeMZjg4ImSOHFw9DG-47" target="PpbCeMZjg4ImSOHFw9DG-47">
          <mxGeometry relative="1" as="geometry" />
        </mxCell>
        <mxCell id="PpbCeMZjg4ImSOHFw9DG-63" style="rounded=0;orthogonalLoop=1;jettySize=auto;html=1;exitX=0.644;exitY=0.033;exitDx=0;exitDy=0;entryX=0;entryY=0.25;entryDx=0;entryDy=0;exitPerimeter=0;" edge="1" parent="1" source="PpbCeMZjg4ImSOHFw9DG-66" target="PpbCeMZjg4ImSOHFw9DG-70">
          <mxGeometry relative="1" as="geometry" />
        </mxCell>
        <mxCell id="PpbCeMZjg4ImSOHFw9DG-64" style="rounded=0;orthogonalLoop=1;jettySize=auto;html=1;exitX=0.75;exitY=1;exitDx=0;exitDy=0;entryX=0;entryY=0.25;entryDx=0;entryDy=0;" edge="1" parent="1" source="PpbCeMZjg4ImSOHFw9DG-66" target="PpbCeMZjg4ImSOHFw9DG-78">
          <mxGeometry relative="1" as="geometry" />
        </mxCell>
        <mxCell id="PpbCeMZjg4ImSOHFw9DG-65" style="rounded=0;orthogonalLoop=1;jettySize=auto;html=1;exitX=1;exitY=0.75;exitDx=0;exitDy=0;entryX=0;entryY=0.5;entryDx=0;entryDy=0;" edge="1" parent="1" source="PpbCeMZjg4ImSOHFw9DG-66" target="PpbCeMZjg4ImSOHFw9DG-76">
          <mxGeometry relative="1" as="geometry" />
        </mxCell>
        <mxCell id="PpbCeMZjg4ImSOHFw9DG-66" value="Web App" style="rounded=0;whiteSpace=wrap;html=1;" vertex="1" parent="1">
          <mxGeometry x="85" y="1155" width="120" height="60" as="geometry" />
        </mxCell>
        <mxCell id="PpbCeMZjg4ImSOHFw9DG-67" value="&lt;span style=&quot;font-size: 20px;&quot;&gt;Зв&#39;язки між компонентами&lt;br&gt;&lt;/span&gt;" style="text;html=1;align=center;verticalAlign=middle;resizable=0;points=[];autosize=1;strokeColor=none;fillColor=none;" vertex="1" parent="1">
          <mxGeometry x="315" y="949" width="261" height="36" as="geometry" />
        </mxCell>
        <mxCell id="PpbCeMZjg4ImSOHFw9DG-68" value="" style="shape=image;html=1;verticalAlign=top;verticalLabelPosition=bottom;labelBackgroundColor=#ffffff;imageAspect=0;aspect=fixed;image=https://cdn2.iconfinder.com/data/icons/whcompare-isometric-web-hosting-servers/50/database-128.png" vertex="1" parent="1">
          <mxGeometry x="666" y="1062.5" width="69" height="69" as="geometry" />
        </mxCell>
        <mxCell id="PpbCeMZjg4ImSOHFw9DG-70" value="Support" style="rounded=0;whiteSpace=wrap;html=1;" vertex="1" parent="1">
          <mxGeometry x="268" y="1018" width="120" height="60" as="geometry" />
        </mxCell>
        <mxCell id="PpbCeMZjg4ImSOHFw9DG-71" style="rounded=0;orthogonalLoop=1;jettySize=auto;html=1;exitX=1;exitY=0.5;exitDx=0;exitDy=0;" edge="1" parent="1" source="PpbCeMZjg4ImSOHFw9DG-72" target="PpbCeMZjg4ImSOHFw9DG-68">
          <mxGeometry relative="1" as="geometry" />
        </mxCell>
        <mxCell id="PpbCeMZjg4ImSOHFw9DG-72" value="Product display" style="rounded=0;whiteSpace=wrap;html=1;" vertex="1" parent="1">
          <mxGeometry x="431" y="1067" width="120" height="60" as="geometry" />
        </mxCell>
        <mxCell id="PpbCeMZjg4ImSOHFw9DG-73" style="rounded=0;orthogonalLoop=1;jettySize=auto;html=1;exitX=1;exitY=0.5;exitDx=0;exitDy=0;" edge="1" parent="1" source="PpbCeMZjg4ImSOHFw9DG-74" target="PpbCeMZjg4ImSOHFw9DG-80">
          <mxGeometry relative="1" as="geometry" />
        </mxCell>
        <mxCell id="PpbCeMZjg4ImSOHFw9DG-74" value="Ordering" style="rounded=0;whiteSpace=wrap;html=1;" vertex="1" parent="1">
          <mxGeometry x="431" y="1155" width="120" height="60" as="geometry" />
        </mxCell>
        <mxCell id="PpbCeMZjg4ImSOHFw9DG-75" style="rounded=0;orthogonalLoop=1;jettySize=auto;html=1;exitX=1;exitY=0.5;exitDx=0;exitDy=0;" edge="1" parent="1" source="PpbCeMZjg4ImSOHFw9DG-76" target="PpbCeMZjg4ImSOHFw9DG-79">
          <mxGeometry relative="1" as="geometry" />
        </mxCell>
        <mxCell id="PpbCeMZjg4ImSOHFw9DG-76" value="Profile editing" style="rounded=0;whiteSpace=wrap;html=1;" vertex="1" parent="1">
          <mxGeometry x="431" y="1258" width="120" height="60" as="geometry" />
        </mxCell>
        <mxCell id="PpbCeMZjg4ImSOHFw9DG-77" style="rounded=0;orthogonalLoop=1;jettySize=auto;html=1;exitX=0;exitY=0.5;exitDx=0;exitDy=0;entryX=0.639;entryY=1.022;entryDx=0;entryDy=0;entryPerimeter=0;" edge="1" parent="1" source="PpbCeMZjg4ImSOHFw9DG-78" target="PpbCeMZjg4ImSOHFw9DG-66">
          <mxGeometry relative="1" as="geometry" />
        </mxCell>
        <mxCell id="PpbCeMZjg4ImSOHFw9DG-78" value="Authorization" style="rounded=0;whiteSpace=wrap;html=1;" vertex="1" parent="1">
          <mxGeometry x="268" y="1318" width="120" height="60" as="geometry" />
        </mxCell>
        <mxCell id="PpbCeMZjg4ImSOHFw9DG-79" value="" style="shape=image;html=1;verticalAlign=top;verticalLabelPosition=bottom;labelBackgroundColor=#ffffff;imageAspect=0;aspect=fixed;image=https://cdn2.iconfinder.com/data/icons/whcompare-isometric-web-hosting-servers/50/database-128.png" vertex="1" parent="1">
          <mxGeometry x="666" y="1253.5" width="69" height="69" as="geometry" />
        </mxCell>
        <mxCell id="PpbCeMZjg4ImSOHFw9DG-80" value="" style="shape=image;html=1;verticalAlign=top;verticalLabelPosition=bottom;labelBackgroundColor=#ffffff;imageAspect=0;aspect=fixed;image=https://cdn2.iconfinder.com/data/icons/whcompare-isometric-web-hosting-servers/50/database-128.png" vertex="1" parent="1">
          <mxGeometry x="666" y="1150.5" width="69" height="69" as="geometry" />
        </mxCell>
        <mxCell id="PpbCeMZjg4ImSOHFw9DG-81" style="rounded=0;orthogonalLoop=1;jettySize=auto;html=1;exitX=0;exitY=0.75;exitDx=0;exitDy=0;entryX=1.006;entryY=0.911;entryDx=0;entryDy=0;entryPerimeter=0;" edge="1" parent="1" source="PpbCeMZjg4ImSOHFw9DG-76" target="PpbCeMZjg4ImSOHFw9DG-66">
          <mxGeometry relative="1" as="geometry" />
        </mxCell>
        <mxCell id="PpbCeMZjg4ImSOHFw9DG-82" style="rounded=0;orthogonalLoop=1;jettySize=auto;html=1;exitX=0;exitY=0.5;exitDx=0;exitDy=0;entryX=1.011;entryY=0.656;entryDx=0;entryDy=0;entryPerimeter=0;" edge="1" parent="1" source="PpbCeMZjg4ImSOHFw9DG-74" target="PpbCeMZjg4ImSOHFw9DG-66">
          <mxGeometry relative="1" as="geometry" />
        </mxCell>
        <mxCell id="PpbCeMZjg4ImSOHFw9DG-83" style="rounded=0;orthogonalLoop=1;jettySize=auto;html=1;exitX=1;exitY=0.5;exitDx=0;exitDy=0;entryX=0.019;entryY=0.328;entryDx=0;entryDy=0;entryPerimeter=0;" edge="1" parent="1" source="PpbCeMZjg4ImSOHFw9DG-66" target="PpbCeMZjg4ImSOHFw9DG-74">
          <mxGeometry relative="1" as="geometry" />
        </mxCell>
        <mxCell id="PpbCeMZjg4ImSOHFw9DG-84" style="rounded=0;orthogonalLoop=1;jettySize=auto;html=1;exitX=0;exitY=0.75;exitDx=0;exitDy=0;entryX=0.994;entryY=0.333;entryDx=0;entryDy=0;entryPerimeter=0;" edge="1" parent="1" source="PpbCeMZjg4ImSOHFw9DG-72" target="PpbCeMZjg4ImSOHFw9DG-66">
          <mxGeometry relative="1" as="geometry" />
        </mxCell>
        <mxCell id="PpbCeMZjg4ImSOHFw9DG-85" style="rounded=0;orthogonalLoop=1;jettySize=auto;html=1;exitX=1.011;exitY=0.156;exitDx=0;exitDy=0;exitPerimeter=0;entryX=-0.003;entryY=0.589;entryDx=0;entryDy=0;entryPerimeter=0;" edge="1" parent="1" source="PpbCeMZjg4ImSOHFw9DG-66" target="PpbCeMZjg4ImSOHFw9DG-72">
          <mxGeometry relative="1" as="geometry">
            <mxPoint x="393" y="1109" as="targetPoint" />
          </mxGeometry>
        </mxCell>
        <mxCell id="PpbCeMZjg4ImSOHFw9DG-86" value="REST" style="text;html=1;align=center;verticalAlign=middle;resizable=0;points=[];autosize=1;strokeColor=none;fillColor=none;rotation=-45;" vertex="1" parent="1">
          <mxGeometry x="182" y="1067" width="50" height="26" as="geometry" />
        </mxCell>
        <mxCell id="PpbCeMZjg4ImSOHFw9DG-87" value="REST" style="text;html=1;align=center;verticalAlign=middle;resizable=0;points=[];autosize=1;strokeColor=none;fillColor=none;rotation=-15;" vertex="1" parent="1">
          <mxGeometry x="275" y="1105.5" width="50" height="26" as="geometry" />
        </mxCell>
        <mxCell id="PpbCeMZjg4ImSOHFw9DG-88" value="REST" style="text;html=1;align=center;verticalAlign=middle;resizable=0;points=[];autosize=1;strokeColor=none;fillColor=none;rotation=0;" vertex="1" parent="1">
          <mxGeometry x="325" y="1150.5" width="50" height="26" as="geometry" />
        </mxCell>
        <mxCell id="PpbCeMZjg4ImSOHFw9DG-89" value="REST" style="text;html=1;align=center;verticalAlign=middle;resizable=0;points=[];autosize=1;strokeColor=none;fillColor=none;rotation=20;" vertex="1" parent="1">
          <mxGeometry x="305" y="1219.5" width="50" height="26" as="geometry" />
        </mxCell>
        <mxCell id="PpbCeMZjg4ImSOHFw9DG-90" value="REST" style="text;html=1;align=center;verticalAlign=middle;resizable=0;points=[];autosize=1;strokeColor=none;fillColor=none;rotation=50;" vertex="1" parent="1">
          <mxGeometry x="215" y="1250" width="50" height="26" as="geometry" />
        </mxCell>
      </root>
    </mxGraphModel>
  </diagram>
</mxfile>
